<svg xmlns="http://www.w3.org/2000/svg" width="1920" height="1080">
  <defs>
    <linearGradient id="background" x1="0%" y1="0%" x2="0%" y2="100%">
      <stop offset="0%" stop-color="#000000" />
      <stop offset="55%" stop-color="#110034" />
      <stop offset="100%" stop-color="#5a000f" />
    </linearGradient>
    <radialGradient id="star" cx="50%" cy="50%" r="50%" fx="50%" fy="50%">
      <stop offset="0%" stop-color="#fdff84" />
      <stop offset="100%" stop-color="transparent" />
    </radialGradient>
  </defs>
  <rect fill="url(#background)" width="1920" height="1080" />
  <g>
    <circle cx="50" cy="50" r="3" fill="url(#star)" />
    <circle cx="277" cy="916" r="3" fill="url(#star)" />
    <circle cx="680" cy="596" r="3" fill="url(#star)" />
    <circle cx="1205" cy="842" r="3" fill="url(#star)" />
    <circle cx="544" cy="736" r="3" fill="url(#star)" />
    <circle cx="1139" cy="502" r="3" fill="url(#star)" />
    <circle cx="273" cy="788" r="3" fill="url(#star)" />
    <circle cx="361" cy="948" r="3" fill="url(#star)" />
    <circle cx="20" cy="900" r="3" fill="url(#star)" />
    <circle cx="859" cy="780" r="3" fill="url(#star)" />
    <circle cx="1665" cy="248" r="3" fill="url(#star)" />
    <circle cx="93" cy="402" r="3" fill="url(#star)" />
    <circle cx="296" cy="831" r="3" fill="url(#star)" />
    <circle cx="1771" cy="126" r="3" fill="url(#star)" />
    <circle cx="863" cy="352" r="3" fill="url(#star)" />
    <circle cx="1580" cy="235" r="3" fill="url(#star)" />
    <circle cx="822" cy="519" r="3" fill="url(#star)" />
    <circle cx="1442" cy="948" r="3" fill="url(#star)" />
    <circle cx="1155" cy="772" r="3" fill="url(#star)" />
    <circle cx="1622" cy="170" r="3" fill="url(#star)" />
    <circle cx="775" cy="880" r="3" fill="url(#star)" />
    <circle cx="1586" cy="328" r="3" fill="url(#star)" />
    <circle cx="1760" cy="452" r="3" fill="url(#star)" />
    <circle cx="493" cy="441" r="3" fill="url(#star)" />
    <circle cx="1477" cy="751" r="3" fill="url(#star)" />
    <circle cx="1221" cy="284" r="3" fill="url(#star)" />
    <circle cx="1865" cy="630" r="3" fill="url(#star)" />
    <circle cx="1896" cy="982" r="3" fill="url(#star)" />
    <circle cx="1668" cy="547" r="3" fill="url(#star)" />
    <circle cx="221" cy="809" r="3" fill="url(#star)" />
    <circle cx="1406" cy="554" r="3" fill="url(#star)" />
    <circle cx="1047" cy="715" r="3" fill="url(#star)" />
    <circle cx="193" cy="427" r="3" fill="url(#star)" />
    <circle cx="818" cy="244" r="3" fill="url(#star)" />
    <circle cx="1490" cy="1047" r="3" fill="url(#star)" />
    <circle cx="667" cy="579" r="3" fill="url(#star)" />
    <circle cx="1093" cy="187" r="3" fill="url(#star)" />
    <circle cx="1477" cy="513" r="3" fill="url(#star)" />
    <circle cx="1827" cy="464" r="3" fill="url(#star)" />
    <circle cx="1876" cy="325" r="3" fill="url(#star)" />
    <circle cx="267" cy="80" r="3" fill="url(#star)" />
    <circle cx="72" cy="706" r="3" fill="url(#star)" />
    <circle cx="1045" cy="629" r="3" fill="url(#star)" />
    <circle cx="892" cy="481" r="3" fill="url(#star)" />
    <circle cx="1411" cy="645" r="3" fill="url(#star)" />
    <circle cx="182" cy="823" r="3" fill="url(#star)" />
    <circle cx="654" cy="267" r="3" fill="url(#star)" />
    <circle cx="179" cy="1030" r="3" fill="url(#star)" />
    <circle cx="543" cy="393" r="3" fill="url(#star)" />
    <circle cx="1448" cy="37" r="3" fill="url(#star)" />
    <circle cx="1676" cy="871" r="3" fill="url(#star)" />
    <circle cx="1162" cy="633" r="3" fill="url(#star)" />
    <circle cx="1443" cy="493" r="3" fill="url(#star)" />
    <circle cx="1677" cy="243" r="3" fill="url(#star)" />
    <circle cx="206" cy="726" r="3" fill="url(#star)" />
    <circle cx="46" cy="202" r="3" fill="url(#star)" />
    <circle cx="336" cy="378" r="3" fill="url(#star)" />
    <circle cx="1352" cy="960" r="3" fill="url(#star)" />
    <circle cx="1844" cy="97" r="3" fill="url(#star)" />
    <circle cx="292" cy="898" r="3" fill="url(#star)" />
  </g>
</svg>
